<?xml version="1.0" encoding="UTF-8"?>
<svg id="Laag_1" data-name="Laag 1" xmlns="http://www.w3.org/2000/svg" viewBox="0 0 86.13 27.01">
  <defs>
    <style>
      .cls-1 {
        fill: #003e28;
        stroke-width: 0px;
      }
    </style>
  </defs>
  <path class="cls-1" d="M13.36,14.44c.49.73,1.17,1.76.5,2.59-.51.62-1.41.85-2.18.69-.82-.17-1.46-.72-1.68-1.53-.2-.73-.02-1.57.58-2.07.64-.53,1.6-.6,2.29-.14.23.15.55.04.68-.18.14-.24.05-.53-.18-.68-.92-.61-2.2-.57-3.12.02-1.02.64-1.46,1.83-1.28,3s1.01,2.1,2.12,2.47,2.41.13,3.28-.66c.53-.48.84-1.19.77-1.9-.08-.78-.48-1.46-.91-2.1-.15-.22-.44-.32-.68-.18-.22.13-.33.46-.18.68h0Z"/>
  <path class="cls-1" d="M13.49,11.33c1.61.81,3.36,1.85,3.89,3.7s-.67,3.18-2.13,4.01c-2.84,1.62-7.45,1.92-9.17-1.48-.78-1.54-.37-3.63,1.14-4.57.55-.34.04-1.2-.5-.86-1.57.97-2.27,2.88-1.94,4.67.35,1.91,1.93,3.36,3.69,4.02,2.16.81,4.59.36,6.63-.58,1.74-.81,3.44-2.3,3.42-4.37-.03-2.67-2.37-4.33-4.52-5.4-.57-.29-1.08.57-.5.86h0Z"/>
  <path class="cls-1" d="M13.57,10.71c-1.25-1.99-2.43-4.04-3.8-5.94-1.19-1.66-2.62-3.3-4.48-4.22C3.67-.27,1.32-.34.34,1.49s.42,4.07,1.34,5.66c1.34,2.3,2.85,4.5,4.48,6.6.4.51,1.1-.21.71-.71-1.25-1.61-2.42-3.28-3.49-5.01-.53-.85-1.04-1.71-1.52-2.59-.43-.79-.87-1.68-.85-2.6s.65-1.61,1.54-1.81c.94-.21,1.89.15,2.69.63,1.57.94,2.8,2.38,3.84,3.86,1.29,1.84,2.43,3.79,3.62,5.69.34.54,1.21.04.86-.5h0Z"/>
  <path class="cls-1" d="M17.12,14.93c2.11.86,4.54.85,6.66.04,1.79-.68,4.83-2.51,4.19-4.83-.17-.62-1.14-.36-.96.27.28,1.02-.78,1.93-1.5,2.49-.76.59-1.64,1.03-2.56,1.31-1.83.56-3.79.49-5.56-.23-.6-.24-.86.72-.27.96h0Z"/>
  <path class="cls-1" d="M16.49,12.15c1.68-.75,3.43-1.32,5.23-1.7.89-.19,1.8-.33,2.7-.41.61-.06,2.3-.37,2.42.57.08.63,1.08.64,1,0-.29-2.37-3.6-1.6-5.18-1.35-2.31.37-4.55,1.06-6.68,2.02-.59.26-.08,1.13.5.86h0Z"/>
  <path class="cls-1" d="M26.16,9.7c2.43-.17,4.47,1.24,6.43,2.48.94.59,1.89,1.16,2.93,1.57,1.1.44,2.27.65,3.42.91,2.01.46,4.56,1.27,5.04,3.58.53,2.58-2.38,3.34-4.33,3.43-5.11.24-10.24.33-15.35.49s-10.29.32-15.44.49c-2.41.08-5.23.22-6.78-2.02-.25-.37-.66-.97-.64-1.43s.48-1.05.75-1.39c.71-.89,1.7-1.46,2.81-1.69.63-.13.36-1.09-.27-.96-1.03.21-1.98.7-2.76,1.42-.64.6-1.48,1.63-1.56,2.55s.76,2.06,1.34,2.68c.77.83,1.8,1.38,2.9,1.63,1.21.28,2.47.25,3.7.22,1.41-.04,2.82-.09,4.23-.13,2.99-.09,5.98-.19,8.97-.28,5.85-.18,11.7-.36,17.54-.55,2.11-.07,4.79-.39,5.7-2.64.86-2.13-.65-4.3-2.48-5.29-1.25-.67-2.64-.96-4.01-1.26-1.53-.34-2.92-.8-4.27-1.6-2.45-1.44-4.86-3.41-7.88-3.2-.64.04-.64,1.04,0,1h0Z"/>
  <path class="cls-1" d="M47.42,7.64c-.62-1-1.88-1.13-2.89-.68s-1.84,1.31-2.5,2.16c-1.37,1.77-2.08,4.02-1.95,6.26.04.64,1.04.64,1,0-.11-1.82.38-3.61,1.37-5.14.48-.74,1.09-1.41,1.79-1.95.61-.46,1.77-1.02,2.31-.15.34.55,1.2.04.86-.5h0Z"/>
  <path class="cls-1" d="M39.75,22.88c1.26,1.31,3.23,1.57,4.96,1.45,1.93-.13,3.81-.78,5.4-1.88.53-.36.03-1.23-.5-.86-1.4.97-3.03,1.59-4.73,1.73-1.51.12-3.31,0-4.42-1.15-.45-.46-1.15.24-.71.71h0Z"/>
  <path class="cls-1" d="M51.23,11.91c.73,3.57.52,7.26-.56,10.73-.19.62.77.88.96.27,1.14-3.65,1.32-7.52.56-11.27-.13-.63-1.09-.36-.96.27h0Z"/>
  <path class="cls-1" d="M52.04,12.34c.42-1.86,3.02-2.05,3.55-.15.25.89-.22,1.69-.97,2.17-.93.6-2.06.62-3.12.59-.4,0-.6.43-.43.75,1.59,3.14,3.18,6.27,4.78,9.41.29.57,1.15.07.86-.5-1.59-3.14-3.18-6.27-4.78-9.41l-.43.75c1.5.03,3.09-.12,4.23-1.19.9-.85,1.18-2.12.67-3.25s-1.57-1.81-2.78-1.68-2.27,1.05-2.54,2.25c-.14.63.82.89.96.27h0Z"/>
  <path class="cls-1" d="M63.44,14.9c1.26.51,2.08,1.85,2.03,3.19-.06,1.44-1.07,2.78-2.43,3.25s-2.95.2-4-.8-1.17-2.55-.27-3.74c1.11-1.45,3.06-1.69,4.75-1.46.27.04.5-.26.5-.5,0-.3-.23-.46-.5-.5-1.89-.25-4.03.1-5.34,1.61-1.22,1.4-1.41,3.36-.25,4.86s3.09,2.03,4.86,1.64,3.28-1.89,3.59-3.72c.35-2.03-.79-4.02-2.69-4.79-.6-.24-.86.73-.27.96h0Z"/>
  <path class="cls-1" d="M73.07,10c-1.8-.65-3.66.23-4.91,1.54s-2.41,3.17-3.02,4.97c-1.19,3.52.26,7.6,3.52,9.45,1.79,1.01,3.91,1.3,5.9.82.63-.15.36-1.11-.27-.96-4.07.97-8.18-1.9-8.56-6.09-.2-2.16.72-4.13,1.9-5.89s2.91-3.7,5.17-2.87c.61.22.87-.75.27-.96h0Z"/>
  <path class="cls-1" d="M84.3,6c-2.39-.09-5.14-.1-6.9,1.8-1.48,1.59-1.56,3.88.08,5.39s3.95,1.68,5.83,2.77c.94.54,1.64,1.35,1.79,2.45.13.93-.13,1.95-.73,2.68-2.04,2.52-5.68.5-7.78-.78-.55-.34-1.05.53-.5.86,2.11,1.28,4.63,2.69,7.17,1.84,1.86-.62,3.01-2.49,2.87-4.44-.17-2.24-1.93-3.46-3.88-4.19-1.81-.67-5.04-1.39-5-3.89.02-1.37,1.16-2.53,2.36-3.02,1.48-.61,3.14-.53,4.71-.47.64.02.64-.98,0-1h0Z"/>
</svg>